name ../VV_Laxity/vv_75.mot
datacolumns  10
datarows 52
range   21.00000000 21.51000000
cursor 1.0 1.0 0.0
keys m_key
wrap
enforce_loops no
enforce_constraints no
calc_derivatives -1.000000
event_color 0.000000 0.000000 0.000000
endheader
            time femur_r_force_vx femur_r_force_vy femur_r_force_vz femur_r_force_px femur_r_force_py femur_r_force_pz femur_r_torque_x femur_r_torque_y femur_r_torque_z 
     21.00000000       0.00000000       0.00000000       0.00000000      -0.06780825      -0.46560544       0.00000000       2.28040550      -8.51058920       0.00000000 
     21.01000000       0.00000000       0.00000000       0.00000000      -0.06780825      -0.46560544       0.00000000       2.28492888      -8.52747066       0.00000000 
     21.02000000       0.00000000       0.00000000       0.00000000      -0.06780825      -0.46560544       0.00000000       2.28942318      -8.54424363       0.00000000 
     21.03000000       0.00000000       0.00000000       0.00000000      -0.06780825      -0.46560544       0.00000000       2.29388828      -8.56090762       0.00000000 
     21.04000000       0.00000000       0.00000000       0.00000000      -0.06780825      -0.46560544       0.00000000       2.29832405      -8.57746214       0.00000000 
     21.05000000       0.00000000       0.00000000       0.00000000      -0.06780825      -0.46560544       0.00000000       2.30273036      -8.59390671       0.00000000 
     21.06000000       0.00000000       0.00000000       0.00000000      -0.06780825      -0.46560544       0.00000000       2.30710708      -8.61024083       0.00000000 
     21.07000000       0.00000000       0.00000000       0.00000000      -0.06780825      -0.46560544       0.00000000       2.31145407      -8.62646403       0.00000000 
     21.08000000       0.00000000       0.00000000       0.00000000      -0.06780825      -0.46560544       0.00000000       2.31577122      -8.64257584       0.00000000 
     21.09000000       0.00000000       0.00000000       0.00000000      -0.06780825      -0.46560544       0.00000000       2.32005839      -8.65857579       0.00000000 
     21.10000000       0.00000000       0.00000000       0.00000000      -0.06780825      -0.46560544       0.00000000       2.32431546      -8.67446339       0.00000000 
     21.11000000       0.00000000       0.00000000       0.00000000      -0.06780825      -0.46560544       0.00000000       2.32854231      -8.69023820       0.00000000 
     21.12000000       0.00000000       0.00000000       0.00000000      -0.06780825      -0.46560544       0.00000000       2.33273880      -8.70589973       0.00000000 
     21.13000000       0.00000000       0.00000000       0.00000000      -0.06780825      -0.46560544       0.00000000       2.33690483      -8.72144754       0.00000000 
     21.14000000       0.00000000       0.00000000       0.00000000      -0.06780825      -0.46560544       0.00000000       2.34104026      -8.73688118       0.00000000 
     21.15000000       0.00000000       0.00000000       0.00000000      -0.06780825      -0.46560544       0.00000000       2.34514497      -8.75220017       0.00000000 
     21.16000000       0.00000000       0.00000000       0.00000000      -0.06780825      -0.46560544       0.00000000       2.34921884      -8.76740408       0.00000000 
     21.17000000       0.00000000       0.00000000       0.00000000      -0.06780825      -0.46560544       0.00000000       2.35326176      -8.78249247       0.00000000 
     21.18000000       0.00000000       0.00000000       0.00000000      -0.06780825      -0.46560544       0.00000000       2.35727361      -8.79746488       0.00000000 
     21.19000000       0.00000000       0.00000000       0.00000000      -0.06780825      -0.46560544       0.00000000       2.36125426      -8.81232088       0.00000000 
     21.20000000       0.00000000       0.00000000       0.00000000      -0.06780825      -0.46560544       0.00000000       2.36520361      -8.82706003       0.00000000 
     21.21000000       0.00000000       0.00000000       0.00000000      -0.06780825      -0.46560544       0.00000000       2.36912152      -8.84168190       0.00000000 
     21.22000000       0.00000000       0.00000000       0.00000000      -0.06780825      -0.46560544       0.00000000       2.37300790      -8.85618606       0.00000000 
     21.23000000       0.00000000       0.00000000       0.00000000      -0.06780825      -0.46560544       0.00000000       2.37686263      -8.87057209       0.00000000 
     21.24000000       0.00000000       0.00000000       0.00000000      -0.06780825      -0.46560544       0.00000000       2.38068559      -8.88483956       0.00000000 
     21.25000000       0.00000000       0.00000000       0.00000000      -0.06780825      -0.46560544       0.00000000       2.38447666      -8.89898806       0.00000000 
     21.26000000       0.00000000       0.00000000       0.00000000      -0.06780825      -0.46560544       0.00000000       2.38823575      -8.91301717       0.00000000 
     21.27000000       0.00000000       0.00000000       0.00000000      -0.06780825      -0.46560544       0.00000000       2.39196274      -8.92692647       0.00000000 
     21.28000000       0.00000000       0.00000000       0.00000000      -0.06780825      -0.46560544       0.00000000       2.39565752      -8.94071557       0.00000000 
     21.29000000       0.00000000       0.00000000       0.00000000      -0.06780825      -0.46560544       0.00000000       2.39931997      -8.95438405       0.00000000 
     21.30000000       0.00000000       0.00000000       0.00000000      -0.06780825      -0.46560544       0.00000000       2.40295001      -8.96793151       0.00000000 
     21.31000000       0.00000000       0.00000000       0.00000000      -0.06780825      -0.46560544       0.00000000       2.40654751      -8.98135756       0.00000000 
     21.32000000       0.00000000       0.00000000       0.00000000      -0.06780825      -0.46560544       0.00000000       2.41011237      -8.99466181       0.00000000 
     21.33000000       0.00000000       0.00000000       0.00000000      -0.06780825      -0.46560544       0.00000000       2.41364449      -9.00784386       0.00000000 
     21.34000000       0.00000000       0.00000000       0.00000000      -0.06780825      -0.46560544       0.00000000       2.41714376      -9.02090332       0.00000000 
     21.35000000       0.00000000       0.00000000       0.00000000      -0.06780825      -0.46560544       0.00000000       2.42061008      -9.03383982       0.00000000 
     21.36000000       0.00000000       0.00000000       0.00000000      -0.06780825      -0.46560544       0.00000000       2.42404336      -9.04665297       0.00000000 
     21.37000000       0.00000000       0.00000000       0.00000000      -0.06780825      -0.46560544       0.00000000       2.42744348      -9.05934240       0.00000000 
     21.38000000       0.00000000       0.00000000       0.00000000      -0.06780825      -0.46560544       0.00000000       2.43081035      -9.07190773       0.00000000 
     21.39000000       0.00000000       0.00000000       0.00000000      -0.06780825      -0.46560544       0.00000000       2.43414387      -9.08434860       0.00000000 
     21.40000000       0.00000000       0.00000000       0.00000000      -0.06780825      -0.46560544       0.00000000       2.43744394      -9.09666464       0.00000000 
     21.41000000       0.00000000       0.00000000       0.00000000      -0.06780825      -0.46560544       0.00000000       2.44071047      -9.10885549       0.00000000 
     21.42000000       0.00000000       0.00000000       0.00000000      -0.06780825      -0.46560544       0.00000000       2.44394336      -9.12092079       0.00000000 
     21.43000000       0.00000000       0.00000000       0.00000000      -0.06780825      -0.46560544       0.00000000       2.44714251      -9.13286020       0.00000000 
     21.44000000       0.00000000       0.00000000       0.00000000      -0.06780825      -0.46560544       0.00000000       2.45030784      -9.14467335       0.00000000 
     21.45000000       0.00000000       0.00000000       0.00000000      -0.06780825      -0.46560544       0.00000000       2.45343924      -9.15635990       0.00000000 
     21.46000000       0.00000000       0.00000000       0.00000000      -0.06780825      -0.46560544       0.00000000       2.45653663      -9.16791951       0.00000000 
     21.47000000       0.00000000       0.00000000       0.00000000      -0.06780825      -0.46560544       0.00000000       2.45959991      -9.17935184       0.00000000 
     21.48000000       0.00000000       0.00000000       0.00000000      -0.06780825      -0.46560544       0.00000000       2.46262900      -9.19065656       0.00000000 
     21.49000000       0.00000000       0.00000000       0.00000000      -0.06780825      -0.46560544       0.00000000       2.46562381      -9.20183332       0.00000000 
     21.50000000       0.00000000       0.00000000       0.00000000      -0.06780825      -0.46560544       0.00000000       2.46858424      -9.21288182       0.00000000 
     21.51000000       0.00000000       0.00000000       0.00000000      -0.06780825      -0.46560544       0.00000000       2.47151022      -9.22380171       0.00000000 
